<mxfile host="app.diagrams.net" modified="2023-05-10T02:39:59.633Z" agent="Mozilla/5.0 (Windows NT 10.0; Win64; x64) AppleWebKit/537.36 (KHTML, like Gecko) Chrome/112.0.0.0 Safari/537.36" version="21.2.9" etag="5HthAc41HwKpPdcto5L7" type="github">
  <diagram name="第 1 页" id="49HhL85UuGYy7voRq5S4">
    <mxGraphModel>
      <root>
        <mxCell id="0" />
        <mxCell id="1" parent="0" />
      </root>
    </mxGraphModel>
  </diagram>
</mxfile>
